<svg width="25" height="25" viewBox="0 0 25 25" fill="none" xmlns="http://www.w3.org/2000/svg">
<path fill-rule="evenodd" clip-rule="evenodd" d="M8.35 2.65002H7.2V3.90002H8.35L8.35 2.65002ZM6.2 2.65002V3.90002H4C2.89543 3.90002 2 4.79545 2 5.90002V7.90002V8.90002V20.9C2 22.0046 2.89543 22.9 4 22.9H21C22.1046 22.9 23 22.0046 23 20.9V8.90002V7.90002V5.90002C23 4.79545 22.1046 3.90002 21 3.90002H18.8V2.65002C18.8 2.09774 18.3523 1.65002 17.8 1.65002H16.65C16.0977 1.65002 15.65 2.09774 15.65 2.65002V3.90002H9.35V2.65002C9.35 2.09774 8.90229 1.65002 8.35 1.65002H7.2C6.64772 1.65002 6.2 2.09774 6.2 2.65002ZM16.65 3.90002H17.8V2.65002H16.65V3.90002ZM15.65 4.90002H9.35H8.35H7.2H6.2H4C3.44772 4.90002 3 5.34774 3 5.90002V7.90002H22V5.90002C22 5.34774 21.5523 4.90002 21 4.90002H18.8H17.8H16.65H15.65ZM3 8.90002H22V20.9C22 21.4523 21.5523 21.9 21 21.9H4C3.44772 21.9 3 21.4523 3 20.9V8.90002ZM6.2 11.9H8.71999V14.2334H6.2V11.9ZM11.24 11.9H13.76V14.2334H11.24V11.9ZM18.8 11.9H16.28V14.2334H18.8V11.9ZM6.2 16.5667H8.71999V18.9H6.2V16.5667ZM13.76 16.5667H11.24V18.9H13.76V16.5667ZM16.28 16.5667H18.8V18.9H16.28V16.5667Z" fill="#9E9E9E"/>
</svg>
