<svg width="25" height="24" viewBox="0 0 25 24" fill="none" xmlns="http://www.w3.org/2000/svg">
<path fill-rule="evenodd" clip-rule="evenodd" d="M12.5 22C18.0228 22 22.5 17.5228 22.5 12C22.5 6.47715 18.0228 2 12.5 2C6.97715 2 2.5 6.47715 2.5 12C2.5 17.5228 6.97715 22 12.5 22ZM17.2211 16.7211C16.8491 17.093 16.2461 17.093 15.8742 16.7211L12.5 13.3469L9.12582 16.7211C8.75389 17.093 8.15087 17.093 7.77895 16.7211C7.40702 16.3491 7.40702 15.7461 7.77895 15.3742L11.1531 12L7.77895 8.62582C7.40702 8.25389 7.40702 7.65087 7.77895 7.27895C8.15087 6.90702 8.75389 6.90702 9.12582 7.27895L12.5 10.6531L15.8742 7.27895C16.2461 6.90702 16.8491 6.90702 17.2211 7.27895C17.593 7.65087 17.593 8.25389 17.2211 8.62582L13.8469 12L17.2211 15.3742C17.593 15.7461 17.593 16.3491 17.2211 16.7211Z" fill="#9E9E9E"/>
</svg>
