<svg width="25" height="25" viewBox="0 0 25 25" fill="none" xmlns="http://www.w3.org/2000/svg">
<path fill-rule="evenodd" clip-rule="evenodd" d="M19.5 12.2C19.5 16.0659 16.366 19.2 12.5 19.2C8.63401 19.2 5.5 16.0659 5.5 12.2C5.5 8.33396 8.63401 5.19995 12.5 5.19995C14.0503 5.19995 15.4829 5.70394 16.6429 6.55702L18.0699 5.13007C16.5377 3.9213 14.6031 3.19995 12.5 3.19995C7.52944 3.19995 3.5 7.22939 3.5 12.2C3.5 17.1705 7.52944 21.2 12.5 21.2C17.4706 21.2 21.5 17.1705 21.5 12.2C21.5 11.1514 21.3207 10.1447 20.991 9.20891L19.3667 10.8333C19.4541 11.2753 19.5 11.7323 19.5 12.2Z" fill="#9E9E9E"/>
<path d="M11.1063 11.392L9.09261 12.2068L11.7929 14.9071C12.1834 15.2976 12.8166 15.2976 13.2071 14.9071L20.5389 7.5753L15.7882 9.49756L12.5 12.7857L11.1063 11.392Z" fill="#9E9E9E"/>
<path d="M19.4191 5.86662L21.9969 4.33187C21.6149 4.11288 21.1192 4.16654 20.7929 4.49284L19.4191 5.86662Z" fill="#9E9E9E"/>
<path d="M22.2071 5.90706C22.5976 5.51653 22.5976 4.88337 22.2071 4.49284C22.1429 4.42862 22.0721 4.37497 21.9969 4.33187L19.4191 5.86662L15.7882 9.49756L20.5389 7.5753L22.2071 5.90706Z" fill="#9E9E9E"/>
<path d="M9.09261 12.2068L11.1063 11.392L10.7451 11.0309L8.97223 12.0864L9.09261 12.2068Z" fill="#9E9E9E"/>
<path d="M10.2071 10.4928C9.81658 10.1023 9.18342 10.1023 8.79289 10.4928C8.40237 10.8834 8.40237 11.5165 8.79289 11.9071L8.97223 12.0864L10.7451 11.0309L10.2071 10.4928Z" fill="#9E9E9E"/>
</svg>
