<svg width="25" height="25" viewBox="0 0 25 25" fill="none" xmlns="http://www.w3.org/2000/svg">
<path fill-rule="evenodd" clip-rule="evenodd" d="M12.5 22.8C18.0228 22.8 22.5 18.3228 22.5 12.8C22.5 7.27714 18.0228 2.79999 12.5 2.79999C6.97715 2.79999 2.5 7.27714 2.5 12.8C2.5 18.3228 6.97715 22.8 12.5 22.8ZM18.2481 9.4636C18.6146 9.05045 18.5768 8.41842 18.1636 8.05191C17.7505 7.68541 17.1184 7.72322 16.7519 8.13637L10.3975 15.2995L7.24302 11.7974C6.87339 11.387 6.24109 11.354 5.83073 11.7236C5.42037 12.0933 5.38735 12.7256 5.75698 13.1359L9.66021 17.4693C9.85072 17.6808 10.1224 17.8011 10.407 17.8C10.6917 17.7989 10.9624 17.6766 11.1513 17.4636L18.2481 9.4636Z" fill="#9E9E9E"/>
</svg>
