<svg width="25" height="24" viewBox="0 0 25 24" fill="none" xmlns="http://www.w3.org/2000/svg">
<path fill-rule="evenodd" clip-rule="evenodd" d="M12.5 22C18.0228 22 22.5 17.5228 22.5 12C22.5 6.47715 18.0228 2 12.5 2C6.97715 2 2.5 6.47715 2.5 12C2.5 17.5228 6.97715 22 12.5 22ZM8.20711 9.29289C7.81658 8.90237 7.18342 8.90237 6.79289 9.29289C6.40237 9.68342 6.40237 10.3166 6.79289 10.7071L11.7929 15.7071C12.1834 16.0976 12.8166 16.0976 13.2071 15.7071L18.2071 10.7071C18.5976 10.3166 18.5976 9.68342 18.2071 9.29289C17.8166 8.90237 17.1834 8.90237 16.7929 9.29289L12.5 13.5858L8.20711 9.29289Z" fill="#9E9E9E"/>
</svg>
