<svg width="25" height="25" viewBox="0 0 25 25" fill="none" xmlns="http://www.w3.org/2000/svg">
<path fill-rule="evenodd" clip-rule="evenodd" d="M15.3158 3.17365C15.5919 3.17365 15.8158 3.3975 15.8158 3.67365V5.8003V7.92695C15.8158 8.2031 15.5919 8.42695 15.3158 8.42695C15.0396 8.42695 14.8158 8.2031 14.8158 7.92695V6.3003H3.97363C3.69749 6.3003 3.47363 6.07644 3.47363 5.8003C3.47363 5.52416 3.69749 5.3003 3.97363 5.3003H14.8158V3.67365C14.8158 3.3975 15.0396 3.17365 15.3158 3.17365ZM17.7061 5.8003C17.7061 5.52416 17.93 5.3003 18.2061 5.3003H20.9869C21.263 5.3003 21.4869 5.52416 21.4869 5.8003C21.4869 6.07644 21.263 6.3003 20.9869 6.3003H18.2061C17.93 6.3003 17.7061 6.07644 17.7061 5.8003ZM7.75435 9.12838C8.03049 9.12838 8.25435 9.35224 8.25435 9.62838V12.1804V14.7324C8.25435 15.0085 8.03049 15.2324 7.75435 15.2324C7.47821 15.2324 7.25435 15.0085 7.25435 14.7324V12.6804H3.97363C3.69749 12.6804 3.47363 12.4565 3.47363 12.1804C3.47363 11.9042 3.69749 11.6804 3.97363 11.6804H7.25435V9.62838C7.25435 9.35224 7.47821 9.12838 7.75435 9.12838ZM10.1447 12.1804C10.1447 11.9042 10.3686 11.6804 10.6447 11.6804H20.9869C21.263 11.6804 21.4869 11.9042 21.4869 12.1804C21.4869 12.4565 21.263 12.6804 20.9869 12.6804H10.6447C10.3686 12.6804 10.1447 12.4565 10.1447 12.1804ZM12.9802 16.4336C12.9802 16.1574 12.7564 15.9336 12.4802 15.9336C12.2041 15.9336 11.9802 16.1574 11.9802 16.4336V18.0602H3.97363C3.69749 18.0602 3.47363 18.2841 3.47363 18.5602C3.47363 18.8364 3.69749 19.0602 3.97363 19.0602H11.9802V20.6869C11.9802 20.963 12.2041 21.1869 12.4802 21.1869C12.7564 21.1869 12.9802 20.963 12.9802 20.6869V18.5602V16.4336ZM15.3706 18.0602C15.0945 18.0602 14.8706 18.2841 14.8706 18.5602C14.8706 18.8364 15.0945 19.0602 15.3706 19.0602H20.9869C21.263 19.0602 21.4869 18.8364 21.4869 18.5602C21.4869 18.2841 21.263 18.0602 20.9869 18.0602H15.3706Z" fill="#9E9E9E"/>
</svg>
