<svg width="25" height="25" viewBox="0 0 25 25" fill="none" xmlns="http://www.w3.org/2000/svg">
<path fill-rule="evenodd" clip-rule="evenodd" d="M7 4.40002C7 4.12388 6.77614 3.90002 6.5 3.90002C6.22386 3.90002 6 4.12388 6 4.40002V6.65002V13.65V20.4C6 20.6762 6.22386 20.9 6.5 20.9C6.77614 20.9 7 20.6762 7 20.4V14.65H19C19.961 14.65 20.3688 13.4266 19.6 12.85L16.8333 10.775L16 10.15L16.8333 9.52502L19.6 7.45002C20.3688 6.87342 19.961 5.65002 19 5.65002H7V4.40002ZM7 6.65002V13.65H19L15.4 10.95C15.1482 10.7612 15 10.4648 15 10.15C15 9.83527 15.1482 9.53888 15.4 9.35002L19 6.65002H7Z" fill="#9E9E9E"/>
</svg>
