<svg width="25" height="24" viewBox="0 0 25 24" fill="none" xmlns="http://www.w3.org/2000/svg">
<path d="M12.5011 2C6.97548 1.99771 2.5 6.59261 2.5 12.2639C2.5 16.7487 5.29969 20.5609 9.19869 21.961C9.72377 22.0964 9.64334 21.7131 9.64334 21.4515V19.6727C6.61127 20.0376 6.48838 17.9766 6.28505 17.6323C5.87392 16.9116 4.90197 16.728 5.19244 16.3837C5.88286 16.0188 6.58669 16.4756 7.40225 17.7126C7.99212 18.6101 9.14283 18.4586 9.72601 18.3094C9.85337 17.77 10.126 17.288 10.5013 16.9139C7.35979 16.3356 6.05044 14.3663 6.05044 12.0252C6.05044 10.8891 6.41465 9.84485 7.12965 9.00253C6.67384 7.61396 7.1721 6.42506 7.23914 6.24834C8.53731 6.12899 9.88688 7.20312 9.9919 7.28804C10.7292 7.08377 11.5716 6.9759 12.5145 6.9759C13.4619 6.9759 14.3065 7.08836 15.0506 7.29493C15.303 7.09754 16.5543 6.17489 17.7609 6.28735C17.8257 6.46408 18.3128 7.62543 17.8838 8.99564C18.6077 9.84026 18.9764 10.8937 18.9764 12.0321C18.9764 14.3778 17.6581 16.3493 14.5076 16.9185C14.7774 17.1911 14.9917 17.5162 15.1379 17.8748C15.284 18.2334 15.3592 18.6183 15.3589 19.0071V21.5892C15.3768 21.7957 15.3589 22 15.6941 22C19.6512 20.6298 22.5 16.79 22.5 12.2662C22.5 6.59261 18.0223 2 12.5011 2V2Z" fill="#9E9E9E"/>
</svg>
