<svg width="25" height="24" viewBox="0 0 25 24" fill="none" xmlns="http://www.w3.org/2000/svg">
<path d="M22.3256 10.1798H13.1934V14.0495H18.4103C18.1854 15.3003 17.5029 16.3583 16.4742 17.0671C15.6047 17.6664 14.4951 18.0208 13.1908 18.0208C10.6658 18.0208 8.52993 16.2619 7.7666 13.8984C7.5745 13.299 7.46328 12.658 7.46328 11.9987C7.46328 11.3394 7.5745 10.6984 7.7666 10.099C8.53246 7.73811 10.6683 5.97915 13.1934 5.97915C14.6164 5.97915 15.8928 6.48469 16.8988 7.47492L19.6792 4.60586C17.9983 2.99023 15.8069 2 13.1934 2C9.40448 2 6.12618 4.24104 4.53126 7.50879C3.87409 8.85863 3.5 10.3857 3.5 12.0013C3.5 13.6169 3.87409 15.1414 4.53126 16.4912C6.12618 19.759 9.40448 22 13.1934 22C15.812 22 18.0059 21.1036 19.6084 19.5765C21.4409 17.8358 22.5 15.2717 22.5 12.2254C22.5 11.5166 22.4393 10.8365 22.3256 10.1798Z" fill="#9E9E9E"/>
</svg>
