<svg width="25" height="25" viewBox="0 0 25 25" fill="none" xmlns="http://www.w3.org/2000/svg">
<path fill-rule="evenodd" clip-rule="evenodd" d="M3 4.65771C3 4.10543 3.44772 3.65771 4 3.65771H21C21.5523 3.65771 22 4.10543 22 4.65771C22 5.21 21.5523 5.65771 21 5.65771H4C3.44772 5.65771 3 5.21 3 4.65771ZM3 12.6519C3 12.0996 3.44772 11.6519 4 11.6519H21C21.5523 11.6519 22 12.0996 22 12.6519C22 13.2042 21.5523 13.6519 21 13.6519H4C3.44772 13.6519 3 13.2042 3 12.6519ZM4 19.6461C3.44772 19.6461 3 20.0938 3 20.6461C3 21.1984 3.44772 21.6461 4 21.6461H21C21.5523 21.6461 22 21.1984 22 20.6461C22 20.0938 21.5523 19.6461 21 19.6461H4Z" fill="#9E9E9E"/>
</svg>
