<svg width="25" height="25" viewBox="0 0 25 25" fill="none" xmlns="http://www.w3.org/2000/svg">
<path fill-rule="evenodd" clip-rule="evenodd" d="M12.2757 3.90002C8.80973 3.90002 6 6.70975 6 10.1757C6 11.5861 6.47506 12.9553 7.34857 14.0626L12.5 20.5927L17.6514 14.0626C18.5249 12.9553 19 11.5861 19 10.1757C19 6.70975 16.1903 3.90002 12.7243 3.90002H12.2757ZM5 10.1757C5 6.15747 8.25744 2.90002 12.2757 2.90002H12.7243C16.7426 2.90002 20 6.15747 20 10.1757C20 11.8108 19.4492 13.3982 18.4365 14.682L12.8926 21.7097C12.7977 21.8299 12.6531 21.9 12.5 21.9C12.3469 21.9 12.2023 21.8299 12.1074 21.7097L6.56345 14.682C5.55076 13.3982 5 11.8108 5 10.1757ZM12.5 12.4C13.6046 12.4 14.5 11.5046 14.5 10.4C14.5 9.29545 13.6046 8.40002 12.5 8.40002C11.3954 8.40002 10.5 9.29545 10.5 10.4C10.5 11.5046 11.3954 12.4 12.5 12.4ZM12.5 13.4C14.1569 13.4 15.5 12.0569 15.5 10.4C15.5 8.74317 14.1569 7.40002 12.5 7.40002C10.8431 7.40002 9.5 8.74317 9.5 10.4C9.5 12.0569 10.8431 13.4 12.5 13.4Z" fill="#9E9E9E"/>
</svg>
