<svg width="25" height="25" viewBox="0 0 25 25" fill="none" xmlns="http://www.w3.org/2000/svg">
<path fill-rule="evenodd" clip-rule="evenodd" d="M12.5 22.8C18.0228 22.8 22.5 18.3228 22.5 12.8C22.5 7.27714 18.0228 2.79999 12.5 2.79999C6.97715 2.79999 2.5 7.27714 2.5 12.8C2.5 18.3228 6.97715 22.8 12.5 22.8ZM11.7908 17.6901C11.5764 17.9267 11.4693 18.2225 11.4693 18.5775C11.4693 18.9192 11.5764 19.2084 11.7908 19.4451C12.0177 19.6817 12.2951 19.8 12.6229 19.8C12.976 19.8 13.2533 19.6817 13.4551 19.4451C13.6694 19.2084 13.7766 18.9192 13.7766 18.5775C13.7766 18.2225 13.6694 17.9267 13.4551 17.6901C13.2533 17.4535 12.976 17.3352 12.6229 17.3352C12.2951 17.3352 12.0177 17.4535 11.7908 17.6901ZM8.97784 7.46187C8.68763 7.76307 8.70798 8.2356 8.99042 8.5441C9.35297 8.9401 9.98182 8.89653 10.3711 8.52672C10.5679 8.33965 10.7701 8.18004 10.9775 8.04788C11.4314 7.74553 11.9799 7.59435 12.6229 7.59435C13.0138 7.59435 13.3605 7.6798 13.6631 7.85069C13.9657 8.02158 14.199 8.25163 14.3629 8.54083C14.5394 8.83003 14.6277 9.16525 14.6277 9.54647C14.6277 9.86196 14.5583 10.1446 14.4196 10.3944C14.2935 10.6441 14.0981 10.8873 13.8333 11.1239C13.5812 11.3606 13.266 11.6103 12.8877 11.8732C12.4842 12.1624 12.1816 12.4911 11.9799 12.8591C11.7782 13.2272 11.7025 13.6807 11.753 14.2197L11.7996 14.7305C11.8375 15.1448 12.1849 15.462 12.6009 15.462C13.0273 15.462 13.3797 15.1293 13.4042 14.7036L13.4173 14.476C13.4425 14.1868 13.4803 13.9502 13.5307 13.7662C13.5812 13.5821 13.6757 13.4178 13.8144 13.2732C13.9531 13.1286 14.1422 12.984 14.3818 12.8394C14.7979 12.5765 15.1635 12.2807 15.4787 11.9521C15.8065 11.6235 16.0587 11.2554 16.2352 10.8479C16.4117 10.4404 16.5 10.0066 16.5 9.54647C16.5 8.78403 16.3235 8.12675 15.9704 7.57464C15.63 7.00938 15.1698 6.57557 14.5898 6.27323C14.0225 5.95773 13.3857 5.79999 12.6797 5.79999C11.7971 5.79999 11.0154 5.99717 10.3345 6.39154C9.85281 6.66634 9.40058 7.02312 8.97784 7.46187Z" fill="#9E9E9E"/>
</svg>
