<svg width="25" height="25" viewBox="0 0 25 25" fill="none" xmlns="http://www.w3.org/2000/svg">
<path d="M11.3185 19.3247C11.3185 18.9239 11.4396 18.5899 11.6816 18.3226C11.9379 18.0554 12.2512 17.9218 12.6214 17.9218C13.0201 17.9218 13.3334 18.0554 13.5612 18.3226C13.8033 18.5899 13.9243 18.9239 13.9243 19.3247C13.9243 19.7107 13.8033 20.0373 13.5612 20.3046C13.3334 20.5718 13.0201 20.7054 12.6214 20.7054C12.2512 20.7054 11.9379 20.5718 11.6816 20.3046C11.4396 20.0373 11.3185 19.7107 11.3185 19.3247ZM8.51905 7.99359C8.20007 7.64519 8.1771 7.11153 8.50485 6.77137C8.98227 6.27587 9.49299 5.87295 10.037 5.5626C10.8059 5.11722 11.6888 4.89453 12.6855 4.89453C13.4829 4.89453 14.202 5.07268 14.8427 5.42898C15.4977 5.77044 16.0175 6.26035 16.4019 6.89873C16.8006 7.52225 17 8.26455 17 9.12561C17 9.64522 16.9003 10.1351 16.701 10.5954C16.5016 11.0556 16.2168 11.4713 15.8466 11.8424C15.4906 12.2136 15.0777 12.5476 14.6078 12.8445C14.3372 13.0078 14.1237 13.1711 13.967 13.3344C13.8104 13.4977 13.7036 13.6833 13.6466 13.8911C13.5897 14.099 13.547 14.3662 13.5185 14.6928L13.5037 14.9498C13.476 15.4306 13.0781 15.8063 12.5965 15.8063C12.1267 15.8063 11.7344 15.4481 11.6916 14.9802L11.6389 14.4033C11.582 13.7946 11.6674 13.2825 11.8952 12.8668C12.123 12.4511 12.4648 12.0799 12.9204 11.7533C13.3476 11.4564 13.7036 11.1743 13.9884 10.9071C14.2874 10.6399 14.5081 10.3652 14.6505 10.0832C14.8071 9.8011 14.8855 9.48191 14.8855 9.12561C14.8855 8.69508 14.7858 8.31651 14.5864 7.9899C14.4013 7.66329 14.1379 7.40349 13.7962 7.21049C13.4544 7.01749 13.0628 6.921 12.6214 6.921C11.8952 6.921 11.2758 7.09172 10.7632 7.43318C10.5289 7.58244 10.3006 7.7627 10.0783 7.97397C9.63869 8.39161 8.9285 8.44081 8.51905 7.99359Z" fill="#9E9E9E"/>
</svg>
