<svg width="25" height="25" viewBox="0 0 25 25" fill="none" xmlns="http://www.w3.org/2000/svg">
<path fill-rule="evenodd" clip-rule="evenodd" d="M13.7223 3.40003L11.2778 3.40002V4.19855C11.2778 5.10176 10.6852 5.81931 9.95079 6.11765C9.92092 6.12979 9.89116 6.14213 9.86151 6.15467C9.13096 6.46374 8.20405 6.37549 7.56516 5.7366L7.00032 5.17176L5.27183 6.90024L5.83663 7.46504C6.47554 8.10395 6.56378 9.03088 6.25469 9.76143C6.24213 9.79111 6.22978 9.82091 6.21763 9.85081C5.91928 10.5852 5.20173 11.1778 4.29852 11.1778H3.5L3.5 13.6223H4.29857C5.20177 13.6223 5.91931 14.2149 6.21766 14.9493C6.22979 14.9791 6.24213 15.0089 6.25468 15.0385C6.56376 15.7691 6.47551 16.696 5.83661 17.3349L5.2718 17.8997L7.00028 19.6282L7.5651 19.0634C8.204 18.4245 9.13092 18.3362 9.86147 18.6453C9.89113 18.6579 9.92091 18.6702 9.95079 18.6823C10.6852 18.9807 11.2778 19.6982 11.2778 20.6014V21.4H13.7223V20.6014C13.7223 19.6982 14.3148 18.9807 15.0492 18.6823C15.0791 18.6702 15.1089 18.6578 15.1385 18.6453C15.8691 18.3362 16.796 18.4244 17.4349 19.0633L17.9998 19.6282L19.7282 17.8997L19.1634 17.3348C18.5245 16.6959 18.4362 15.769 18.7453 15.0385C18.7578 15.0088 18.7702 14.9791 18.7823 14.9493C19.0806 14.2149 19.7982 13.6223 20.7014 13.6223H21.5V11.1778H20.7014C19.7982 11.1778 19.0807 10.5852 18.7823 9.85081C18.7702 9.82093 18.7578 9.79116 18.7453 9.76149C18.4362 9.03094 18.5244 8.10403 19.1633 7.46513L19.7282 6.90027L17.9997 5.17179L17.4349 5.73663C16.796 6.37554 15.869 6.46378 15.1385 6.1547C15.1089 6.14216 15.0791 6.12982 15.0492 6.11769C14.3148 5.81933 13.7223 5.10179 13.7223 4.1986V3.40003ZM11.2778 2.40002C10.7255 2.40002 10.2778 2.84774 10.2778 3.40002V4.19855C10.2778 4.64097 9.98432 5.02467 9.57443 5.19118C9.54012 5.20512 9.50593 5.21929 9.47187 5.2337C9.06427 5.40615 8.58522 5.34244 8.27226 5.02949L7.70742 4.46465C7.3169 4.07412 6.68373 4.07412 6.29321 4.46465L4.56473 6.19313C4.1742 6.58366 4.1742 7.21682 4.56472 7.60735L5.12953 8.17215C5.44248 8.48511 5.50619 8.96417 5.33373 9.37177C5.3193 9.40588 5.30511 9.4401 5.29116 9.47445C5.12465 9.88434 4.74095 10.1778 4.29852 10.1778L3.5 10.1778C2.94771 10.1778 2.5 10.6255 2.5 11.1778V13.6223C2.5 14.1746 2.94772 14.6223 3.5 14.6223H4.29857C4.74099 14.6223 5.12468 14.9158 5.2912 15.3256C5.30513 15.3599 5.3193 15.3941 5.33371 15.4282C5.50616 15.8358 5.44246 16.3148 5.1295 16.6278L4.56469 17.1926C4.17417 17.5831 4.17416 18.2163 4.56469 18.6068L6.29317 20.3353C6.6837 20.7258 7.31686 20.7258 7.70739 20.3353L8.27221 19.7705C8.58516 19.4575 9.06422 19.3938 9.47183 19.5663C9.5059 19.5807 9.5401 19.5949 9.57443 19.6088C9.98432 19.7753 10.2778 20.159 10.2778 20.6014V21.4C10.2778 21.9523 10.7255 22.4 11.2778 22.4H13.7223C14.2745 22.4 14.7223 21.9523 14.7223 21.4V20.6014C14.7223 20.159 15.0157 19.7753 15.4256 19.6088C15.4599 19.5948 15.4941 19.5806 15.5282 19.5662C15.9358 19.3938 16.4149 19.4575 16.7278 19.7704L17.2926 20.3353C17.6832 20.7258 18.3163 20.7258 18.7069 20.3353L20.4353 18.6068C20.8259 18.2163 20.8259 17.5831 20.4353 17.1926L19.8705 16.6277C19.5575 16.3148 19.4938 15.8357 19.6663 15.4281C19.6807 15.3941 19.6948 15.3599 19.7087 15.3256C19.8753 14.9158 20.259 14.6223 20.7014 14.6223H21.5C22.0523 14.6223 22.5 14.1746 22.5 13.6223V11.1778C22.5 10.6255 22.0523 10.1778 21.5 10.1778H20.7014C20.259 10.1778 19.8753 9.88434 19.7088 9.47445C19.6948 9.44013 19.6807 9.40593 19.6662 9.37185C19.4938 8.96424 19.5575 8.48519 19.8705 8.17223L20.4353 7.60738C20.8258 7.21685 20.8258 6.58369 20.4353 6.19317L18.7068 4.46468C18.3163 4.07416 17.6831 4.07416 17.2926 4.46468L16.7278 5.02953C16.4148 5.34248 15.9358 5.40619 15.5281 5.23374C15.4941 5.21933 15.4599 5.20516 15.4256 5.19122C15.0157 5.02471 14.7223 4.64101 14.7223 4.1986V3.40003C14.7223 2.84774 14.2745 2.40002 13.7223 2.40002H11.2778ZM12.4999 15.4C14.1568 15.4 15.4999 14.0569 15.4999 12.4C15.4999 10.7432 14.1568 9.40004 12.4999 9.40004C10.8431 9.40004 9.49995 10.7432 9.49995 12.4C9.49995 14.0569 10.8431 15.4 12.4999 15.4ZM12.4999 16.4C14.7091 16.4 16.4999 14.6092 16.4999 12.4C16.4999 10.1909 14.7091 8.40004 12.4999 8.40004C10.2908 8.40004 8.49995 10.1909 8.49995 12.4C8.49995 14.6092 10.2908 16.4 12.4999 16.4Z" fill="#9E9E9E"/>
</svg>
