<svg width="25" height="25" viewBox="0 0 25 25" fill="none" xmlns="http://www.w3.org/2000/svg">
<path fill-rule="evenodd" clip-rule="evenodd" d="M18.587 5.40002C18.587 6.51201 17.6806 7.40002 16.5791 7.40002C16.1242 7.40002 15.7027 7.2486 15.3644 6.99251C15.345 7.01316 15.3235 7.03243 15.3 7.05002L9.31937 11.5355C9.44518 11.7966 9.51582 12.0896 9.51582 12.4C9.51582 12.7107 9.44508 13.0039 9.3191 13.2651C9.31944 13.2654 9.31978 13.2656 9.32012 13.2659L15.0818 18.0673C15.4507 17.6569 15.9867 17.4 16.5791 17.4C17.6806 17.4 18.587 18.288 18.587 19.4C18.587 20.512 17.6806 21.4 16.5791 21.4C15.4776 21.4 14.5712 20.512 14.5712 19.4C14.5712 19.2559 14.5864 19.1155 14.6153 18.9803L8.67994 14.0341C8.67774 14.0323 8.67556 14.0305 8.6734 14.0286C8.34388 14.2628 7.94097 14.4 7.50791 14.4C6.40642 14.4 5.5 13.512 5.5 12.4C5.5 11.288 6.40642 10.4 7.50791 10.4C7.94096 10.4 8.34386 10.5373 8.67339 10.7714C8.68196 10.7641 8.69084 10.7569 8.70003 10.75L14.7 6.25002C14.7151 6.23873 14.7306 6.22841 14.7464 6.21906C14.6339 5.96961 14.5712 5.69257 14.5712 5.40002C14.5712 4.28804 15.4776 3.40002 16.5791 3.40002C17.6806 3.40002 18.587 4.28804 18.587 5.40002ZM16.5791 6.40002C17.1357 6.40002 17.587 5.95231 17.587 5.40002C17.587 4.84774 17.1357 4.40002 16.5791 4.40002C16.0224 4.40002 15.5712 4.84774 15.5712 5.40002C15.5712 5.95231 16.0224 6.40002 16.5791 6.40002ZM8.51582 12.4C8.51582 12.9523 8.06457 13.4 7.50791 13.4C6.95126 13.4 6.5 12.9523 6.5 12.4C6.5 11.8477 6.95126 11.4 7.50791 11.4C8.06457 11.4 8.51582 11.8477 8.51582 12.4ZM17.587 19.4C17.587 19.9523 17.1357 20.4 16.5791 20.4C16.0224 20.4 15.5712 19.9523 15.5712 19.4C15.5712 18.8477 16.0224 18.4 16.5791 18.4C17.1357 18.4 17.587 18.8477 17.587 19.4Z" fill="#9E9E9E"/>
</svg>
