<svg width="25" height="25" viewBox="0 0 25 25" fill="none" xmlns="http://www.w3.org/2000/svg">
<path fill-rule="evenodd" clip-rule="evenodd" d="M19.9353 5.63528C19.9353 5.35914 19.7114 5.13528 19.4353 5.13528L12.9353 5.13528C12.8027 5.13528 12.6755 5.18796 12.5817 5.28173L4.13175 13.7317C3.93649 13.927 3.93649 14.2436 4.13175 14.4388L10.6317 20.9388C10.827 21.1341 11.1436 21.1341 11.3389 20.9388L19.7889 12.4888C19.8826 12.3951 19.9353 12.2679 19.9353 12.1353L19.9353 5.63528ZM5.19241 14.0853L13.1424 6.13528L18.9353 6.13528L18.9353 11.9282L10.9853 19.8782L5.19241 14.0853ZM14.8853 10.1853C15.2443 10.5443 15.8263 10.5443 16.1853 10.1853C16.5443 9.82635 16.5443 9.24432 16.1853 8.88533C15.8263 8.52635 15.2443 8.52635 14.8853 8.88533C14.5263 9.24432 14.5263 9.82635 14.8853 10.1853Z" fill="#9E9E9E"/>
</svg>
