<svg width="25" height="25" viewBox="0 0 25 25" fill="none" xmlns="http://www.w3.org/2000/svg">
<path fill-rule="evenodd" clip-rule="evenodd" d="M17.393 3.20065C17.5883 3.00538 17.9049 3.00538 18.1001 3.20065L21.8993 6.99987C22.0946 7.19513 22.0946 7.51171 21.8993 7.70697L8.60209 21.0043C8.5323 21.0741 8.4434 21.1217 8.3466 21.141L3.59758 22.0908C3.43365 22.1236 3.26418 22.0723 3.14597 21.9541C3.02776 21.8359 2.97644 21.6664 3.00923 21.5025L3.95903 16.7534C3.97839 16.6567 4.02597 16.5678 4.09577 16.498L17.393 3.20065ZM17.7466 4.26131L15.2787 6.72924L18.3708 9.82135L20.8387 7.35342L17.7466 4.26131ZM4.90992 17.098L14.5715 7.43635L17.6637 10.5285L8.00204 20.1901L4.1369 20.9632L4.90992 17.098ZM12 20.5999C11.7238 20.5999 11.5 20.8238 11.5 21.0999C11.5 21.3761 11.7238 21.5999 12 21.5999H21C21.2761 21.5999 21.5 21.3761 21.5 21.0999C21.5 20.8238 21.2761 20.5999 21 20.5999H12Z" fill="#9E9E9E"/>
</svg>
