<svg width="25" height="25" viewBox="0 0 25 25" fill="none" xmlns="http://www.w3.org/2000/svg">
<path fill-rule="evenodd" clip-rule="evenodd" d="M5.32117 11.541C5.32117 8.45568 7.83884 5.9444 10.9571 5.9444C14.0753 5.9444 16.5929 8.45568 16.5929 11.541C16.5929 14.6264 14.0753 17.1377 10.9571 17.1377C7.83884 17.1377 5.32117 14.6264 5.32117 11.541ZM10.9571 3.9444C6.74547 3.9444 3.32117 7.33994 3.32117 11.541C3.32117 15.7421 6.74547 19.1377 10.9571 19.1377C12.825 19.1377 14.538 18.4697 15.8661 17.3598L20.2059 21.6739C20.5976 22.0633 21.2307 22.0614 21.6201 21.6697C22.0094 21.278 22.0076 20.6449 21.6159 20.2555L17.2211 15.8867C18.0855 14.656 18.5929 13.1582 18.5929 11.541C18.5929 7.33994 15.1686 3.9444 10.9571 3.9444Z" fill="#9E9E9E"/>
</svg>
